<?xml version="1.0" encoding="utf-8"?>
<!-- Generator: Adobe Illustrator 21.1.0, SVG Export Plug-In . SVG Version: 6.00 Build 0)  -->
<svg version="1.1" id="Layer_1" xmlns="http://www.w3.org/2000/svg" xmlns:xlink="http://www.w3.org/1999/xlink" x="0px" y="0px"
	 viewBox="0 0 566.9 226.8" style="enable-background:new 0 0 566.9 226.8;" xml:space="preserve">
<style type="text/css">
	.st0{fill:#FFFFFF;}
</style>
<path class="st0" d="M476.8,141.7c-10,0-17.5-2.8-22.3-8.4c-4.9-5.6-7.3-12.5-7.3-20.8V48.2h-12V31.2h12V6.8L471.6,0v31.2h20.3v17.1
	h-20.3v63.1c0,9.3,3.9,14,11.8,14c1.6,0,3.5-0.3,5.8-1v15.2c-1.1,0.5-2.8,1-5.1,1.5C481.7,141.5,479.3,141.7,476.8,141.7z"/>
<path class="st0" d="M34,141.7c-8,0-14.6-0.6-19.9-1.9c-5.3-1.3-10-3.2-14.1-5.9l6.2-17.8c2.8,1.9,6.1,3.4,10,4.6
	c3.9,1.2,8.2,1.8,13,1.8c6.7,0,12-1.9,16-5.8c4-3.9,5.9-9,5.9-15.4c0-5.2-1.6-9.6-4.9-13.1c-3.3-3.5-9.4-7.2-18.5-11
	c-9.1-3.8-15.7-8.9-20-15.4c-4.3-6.5-6.3-13.6-6.3-21.3c0-11.3,3.8-20.9,11.3-28.7C20.3,3.9,30.2,0,42.6,0c6.7,0,12.5,0.7,17.5,2.1
	c5,1.4,9.2,3.3,12.7,5.6l-5.6,15.7c-2.8-1.8-6-3.3-9.6-4.5C54,17.7,50.2,17,46,17c-6.3,0-11.1,1.8-14.6,5.4
	c-3.5,3.6-5.2,8.5-5.2,14.6c0,5.5,1.6,9.9,5.2,13.3c3.5,3.4,10.1,7.1,19.6,11.1s16.4,9.3,20.6,15.9c4.2,6.6,6.3,14,6.3,22.2
	c0,12.3-4,22.4-12.3,30.3C57.4,137.8,46.8,141.7,34,141.7z"/>
<path class="st0" d="M126.2,141.7c-14.5,0-25.5-2.8-32.9-8.5c-7.4-5.7-11.1-13.8-11.1-24.3c0-13.1,5.3-22.5,15.8-28.3
	c10.5-5.8,25.4-9.6,44.4-11.5v-4.4c0-6.5-1.8-11.2-5.5-13.8c-3.7-2.7-9-4-15.9-4c-5,0-9.6,0.6-14,1.7c-4.4,1.1-8.8,2.8-13,4.9
	l-5.6-14c4.7-2.3,10-4.2,16.1-5.8c6.1-1.6,13.1-2.4,21-2.4c12.2,0,21,2.9,28.2,8.7c7.2,5.8,10.8,15.3,10.8,28.5v65.5
	c-4.4,2.3-9.1,4.1-15.8,5.6C141.8,141,134.4,141.7,126.2,141.7z M142.5,80.7c-12.9,1.6-22.4,4.3-28.4,8c-6,3.7-9,10.2-9,19.4
	c0,6.8,1.9,11.8,5.8,15.1c3.9,3.3,9.5,4.9,16.9,4.9c5.8,0,10.6-1,14.7-3V80.7z"/>
<path class="st0" d="M214.1,141.7c-12.7,0-22.9-5-30.8-14.9c-7.9-9.9-11.8-22.4-11.8-40c0-17.4,4-31,12.1-40.8
	c8.1-9.9,18.3-14.8,30.7-14.8c6.1,0,11.2,0.7,15.2,2.1c4,1.4,7.3,3.2,9.8,5.3l-5.2,13.8c-1.7-1.3-3.7-2.4-6-3.3s-5.1-1.3-8.4-1.3
	c-8,0-13.9,3.4-17.8,10.1c-3.9,6.7-5.8,16.2-5.8,28.5c0,12,2,20.2,6.1,27.2c4.1,7,9.7,10.5,17.1,10.5c3.3,0,6.1-0.4,8.3-1.1
	c2.2-0.7,4.3-2,6.3-3.7l5.6,15c-2.4,2.3-5.7,4.1-9.9,5.4C225.4,141.1,220.2,141.7,214.1,141.7z"/>
<path class="st0" d="M308.7,140.3V64.4c0-5.3-1.5-9.7-4.4-13.1c-2.9-3.4-7.8-5.1-14.6-5.1c-6.5,0-12.3,1.5-17.2,4.4v89.7H248
	l0-133.5L272.5,0v36.8c7.9-3.7,15.9-5.6,24-5.6c12.5,0,21.8,3.1,27.7,9.3c5.9,6.2,8.9,14,8.9,23.3v76.6H308.7z"/>
<path class="st0" d="M364.8,94.7c2,20,11.8,30,29.4,30c5.9,0,11-0.5,15.4-1.6c4.4-1.1,8.3-2.5,11.8-4.4l5.8,15.4
	c-4.1,2.3-9.1,4.1-14.9,5.5c-5.8,1.4-12.7,2.1-20.7,2.1c-15.5,0-27.7-4.9-36.6-14.6c-8.9-9.7-13.4-23.6-13.4-41.6
	c0-17.5,4.1-29.8,12.3-39.6c8.2-9.8,19.5-14.7,33.7-14.7c14.3,0,25.1,4.6,32.3,13.9c7.3,9.3,10.9,21.7,10.9,40L364.8,94.7z
	 M386.8,46.2c-7.3,0-13.1,3.1-17.2,9.3c-4.1,6.2-6.2,14.2-6.2,26.8l44.6-6.9c0-10.5-1.8-16.9-5.5-21.8
	C398.9,48.7,393.6,46.2,386.8,46.2z"/>
<path class="st0" d="M528.6,141.7c-6.1,0-11.7-0.7-16.9-2.1c-5.1-1.4-9.4-3.3-12.9-5.6l6.4-15.7c2,1.7,4.8,3.1,8.5,4.4
	c3.7,1.3,7.5,2,11.7,2c4.9,0,8.9-1.4,12-4.2c3.1-2.8,4.6-6.5,4.6-11c0-4.7-1.2-8.2-3.5-10.7c-2.3-2.5-7.3-5.2-15-8.1
	c-7.6-2.9-13.2-6.9-16.7-11.9c-3.5-5-5.2-10.8-5.2-17.3c0-8.7,3.2-14.9,9.5-21c6.3-6.1,14.5-9.1,24.6-9.1c5.9,0,11,0.6,15.6,1.9
	c4.5,1.3,8.6,3.2,12.4,5.7l-6,13.1c-2-1.6-4.4-1.9-7.3-3.1c-2.9-1.2-6.2-1.8-9.9-1.8c-4.8,0-8.5,1.4-11.3,4.1c-2.7,2.7-4.1,5-4.1,9
	c0,4.1,1.3,7.5,4,10c2.7,2.5,7.8,5.3,15.4,8.4c7.6,3.1,13.2,7.1,16.9,12.2c3.7,5.1,5.5,11.1,5.5,18.2c0,9.2-3.5,17-10.5,23.3
	C549.5,138.6,540.2,141.7,528.6,141.7z"/>
<path class="st0" d="M559.8,8.5c-3.9,0-7.1,3.2-7.1,7.1c0,3.9,3.2,7.1,7.1,7.1c3.9,0,7.1-3.2,7.1-7.1
	C566.9,11.7,563.8,8.5,559.8,8.5z M559.8,21.3c-3.1,0-5.7-2.5-5.7-5.7s2.5-5.7,5.7-5.7s5.7,2.5,5.7,5.7S563,21.3,559.8,21.3z"/>
<path class="st0" d="M561.1,18.7l-2-3.2l0,3.2h-1.3V12c0.2-0.1,0.5-0.2,0.8-0.3c0.3-0.1,0.7-0.1,1.1-0.1c0.9,0,1.5,0.2,1.9,0.6
	c0.4,0.4,0.6,0.9,0.6,1.6c0,0.5-0.2,1-0.5,1.3c-0.3,0.3-0.8,0.5-1.3,0.5l2.1,3.1L561.1,18.7z M559.8,12.4c-0.2,0-0.5,0-0.6,0.1v2.7
	c0.1,0,0.1,0,0.2,0c0.1,0,0.2,0,0.2,0c0.5,0,0.9-0.1,1.1-0.4c0.2-0.2,0.4-0.6,0.4-1.1c0-0.5-0.1-0.9-0.3-1.1
	C560.6,12.5,560.2,12.4,559.8,12.4z"/>
<g id="_2431949445312">
	<path class="st0" d="M94.5,210.9c0,2.3-0.4,4.4-1.1,6.4c-0.7,1.9-1.7,3.5-3,4.9c-1.3,1.4-2.8,2.4-4.5,3.2c-1.7,0.7-3.6,1.1-5.7,1.1
		h-9.4l3.4-27.3h9.4c1.7,0,3.2,0.3,4.5,0.9c1.4,0.6,2.5,1.4,3.4,2.4c0.9,1,1.7,2.3,2.2,3.7C94.3,207.6,94.5,209.2,94.5,210.9z
		 M90.9,211c0-1.4-0.2-2.6-0.5-3.7c-0.4-1.1-0.9-2-1.5-2.8c-0.7-0.8-1.5-1.4-2.4-1.8c-0.9-0.4-2-0.6-3.2-0.6h-5.8l-2.7,21.5h5.8
		c1.5,0,2.9-0.3,4.2-0.9c1.3-0.6,2.3-1.4,3.2-2.5c0.9-1.1,1.6-2.4,2.1-4C90.6,214.7,90.9,212.9,90.9,211z M104.3,224.1
		c0.9,0,1.8-0.3,2.5-0.8c0.8-0.5,1.4-1.2,1.9-2c0.5-0.9,0.9-1.8,1.2-2.9c0.3-1.1,0.4-2.3,0.4-3.5c0-1.8-0.3-3.1-1-4
		c-0.7-0.9-1.7-1.4-3-1.4c-0.9,0-1.8,0.3-2.5,0.8c-0.8,0.5-1.4,1.2-1.9,2c-0.5,0.8-0.9,1.8-1.2,2.9c-0.3,1.1-0.4,2.3-0.4,3.5
		c0,1.8,0.3,3.1,1,4C102,223.6,103,224.1,104.3,224.1z M104,226.7c-1.1,0-2-0.2-2.9-0.5c-0.9-0.4-1.6-0.9-2.3-1.6s-1.1-1.5-1.5-2.5
		c-0.4-1-0.5-2.1-0.5-3.4c0-1.6,0.3-3.2,0.8-4.6c0.5-1.4,1.2-2.7,2.1-3.8c0.9-1.1,1.9-1.9,3.1-2.5c1.2-0.6,2.5-0.9,3.9-0.9
		c1.1,0,2,0.2,2.9,0.5c0.9,0.4,1.6,0.9,2.3,1.6c0.6,0.7,1.1,1.5,1.5,2.5c0.4,1,0.5,2.1,0.5,3.4c0,1.6-0.3,3.1-0.8,4.6
		c-0.5,1.4-1.2,2.7-2.1,3.8c-0.9,1.1-1.9,1.9-3.1,2.6C106.7,226.4,105.4,226.7,104,226.7z M129.1,210.3c-0.1,0.2-0.2,0.3-0.3,0.3
		c-0.1,0.1-0.2,0.1-0.4,0.1c-0.2,0-0.4-0.1-0.6-0.2c-0.2-0.1-0.5-0.3-0.8-0.5c-0.3-0.2-0.7-0.3-1.1-0.5c-0.4-0.1-1-0.2-1.6-0.2
		c-0.6,0-1.1,0.1-1.6,0.2s-0.9,0.4-1.2,0.7c-0.3,0.3-0.6,0.6-0.8,1c-0.2,0.4-0.3,0.8-0.3,1.2c0,0.6,0.2,1.1,0.6,1.4
		c0.4,0.4,0.9,0.7,1.5,0.9c0.6,0.3,1.2,0.5,1.9,0.8c0.7,0.2,1.3,0.5,1.9,0.9c0.6,0.4,1.1,0.8,1.5,1.4c0.4,0.6,0.6,1.3,0.6,2.2
		c0,0.9-0.2,1.7-0.5,2.5c-0.3,0.8-0.8,1.5-1.5,2.1c-0.7,0.6-1.4,1.1-2.4,1.5c-0.9,0.4-2,0.6-3.1,0.6c-1.2,0-2.3-0.2-3.3-0.7
		c-0.9-0.4-1.7-1-2.3-1.7l0.8-1.3c0.1-0.2,0.2-0.3,0.4-0.4c0.1-0.1,0.3-0.1,0.5-0.1c0.2,0,0.4,0.1,0.6,0.3c0.2,0.2,0.5,0.4,0.8,0.6
		c0.3,0.2,0.7,0.4,1.2,0.6c0.5,0.2,1,0.3,1.8,0.3c0.6,0,1.2-0.1,1.7-0.3c0.5-0.2,0.9-0.4,1.3-0.8c0.3-0.3,0.6-0.7,0.8-1.1
		c0.2-0.4,0.3-0.9,0.3-1.4c0-0.6-0.2-1.2-0.6-1.5c-0.4-0.4-0.9-0.7-1.5-1c-0.6-0.3-1.2-0.5-1.9-0.7c-0.7-0.2-1.3-0.5-1.9-0.9
		c-0.6-0.4-1.1-0.8-1.5-1.4c-0.4-0.6-0.6-1.3-0.6-2.2c0-0.8,0.2-1.6,0.5-2.3c0.3-0.8,0.8-1.4,1.4-2c0.6-0.6,1.4-1.1,2.2-1.4
		c0.9-0.4,1.8-0.5,2.9-0.5c1.2,0,2.2,0.2,3.1,0.6c0.9,0.4,1.6,0.9,2.3,1.6L129.1,210.3z M147.4,211.3c0,0.8-0.2,1.6-0.5,2.3
		c-0.3,0.7-1,1.3-1.9,1.9c-0.9,0.6-2.2,1.1-3.8,1.5c-1.6,0.4-3.7,0.8-6.2,1c0,0.1,0,0.3,0,0.4c0,0.1,0,0.3,0,0.4
		c0,1.7,0.4,3,1.1,3.9c0.7,0.9,1.9,1.3,3.4,1.3c0.6,0,1.2-0.1,1.6-0.2c0.5-0.1,0.9-0.3,1.3-0.5c0.4-0.2,0.7-0.4,1-0.6
		c0.3-0.2,0.5-0.4,0.8-0.6c0.2-0.2,0.5-0.3,0.7-0.5c0.2-0.1,0.4-0.2,0.6-0.2c0.2,0,0.4,0.1,0.6,0.3l0.8,1c-0.6,0.7-1.3,1.2-1.9,1.7
		c-0.6,0.5-1.3,0.9-1.9,1.2c-0.6,0.3-1.3,0.5-2,0.7c-0.7,0.1-1.5,0.2-2.3,0.2c-1.1,0-2.1-0.2-3-0.6c-0.9-0.4-1.6-0.9-2.2-1.6
		c-0.6-0.7-1.1-1.5-1.4-2.5c-0.3-1-0.5-2-0.5-3.2c0-1,0.1-2,0.3-3c0.2-1,0.5-1.9,0.9-2.8c0.4-0.9,0.9-1.7,1.5-2.5
		c0.6-0.8,1.2-1.4,2-2c0.7-0.6,1.6-1,2.5-1.3c0.9-0.3,1.9-0.5,2.9-0.5c1,0,1.8,0.1,2.5,0.4c0.7,0.3,1.3,0.6,1.8,1.1
		c0.5,0.4,0.8,0.9,1,1.4C147.3,210.3,147.4,210.8,147.4,211.3z M141.5,209.3c-0.8,0-1.5,0.2-2.2,0.5c-0.7,0.3-1.3,0.8-1.8,1.4
		c-0.5,0.6-1,1.3-1.3,2c-0.4,0.8-0.7,1.6-0.9,2.5c2-0.2,3.5-0.5,4.7-0.8c1.2-0.3,2.1-0.7,2.7-1c0.6-0.4,1.1-0.8,1.3-1.2
		c0.2-0.4,0.3-0.9,0.3-1.3c0-0.2-0.1-0.5-0.2-0.7c-0.1-0.2-0.3-0.5-0.5-0.7c-0.2-0.2-0.5-0.4-0.9-0.5
		C142.5,209.4,142,209.3,141.5,209.3z M162.3,210.3c-0.1,0.2-0.2,0.3-0.3,0.3c-0.1,0.1-0.2,0.1-0.4,0.1c-0.2,0-0.4-0.1-0.6-0.2
		c-0.2-0.1-0.5-0.3-0.8-0.5c-0.3-0.2-0.7-0.3-1.1-0.5s-1-0.2-1.6-0.2c-0.6,0-1.1,0.1-1.6,0.2c-0.5,0.2-0.9,0.4-1.2,0.7
		c-0.3,0.3-0.6,0.6-0.8,1c-0.2,0.4-0.3,0.8-0.3,1.2c0,0.6,0.2,1.1,0.6,1.4c0.4,0.4,0.9,0.7,1.5,0.9c0.6,0.3,1.2,0.5,1.9,0.8
		c0.7,0.2,1.3,0.5,1.9,0.9c0.6,0.4,1.1,0.8,1.5,1.4c0.4,0.6,0.6,1.3,0.6,2.2c0,0.9-0.2,1.7-0.5,2.5c-0.3,0.8-0.8,1.5-1.5,2.1
		s-1.4,1.1-2.4,1.5c-0.9,0.4-2,0.6-3.1,0.6c-1.2,0-2.3-0.2-3.3-0.7c-0.9-0.4-1.7-1-2.3-1.7l0.8-1.3c0.1-0.2,0.2-0.3,0.4-0.4
		c0.1-0.1,0.3-0.1,0.5-0.1c0.2,0,0.4,0.1,0.6,0.3c0.2,0.2,0.5,0.4,0.8,0.6c0.3,0.2,0.7,0.4,1.2,0.6c0.5,0.2,1,0.3,1.8,0.3
		c0.6,0,1.2-0.1,1.7-0.3c0.5-0.2,0.9-0.4,1.3-0.8c0.3-0.3,0.6-0.7,0.8-1.1c0.2-0.4,0.3-0.9,0.3-1.4c0-0.6-0.2-1.2-0.6-1.5
		c-0.4-0.4-0.9-0.7-1.5-1c-0.6-0.3-1.2-0.5-1.9-0.7c-0.7-0.2-1.3-0.5-1.9-0.9c-0.6-0.4-1.1-0.8-1.5-1.4c-0.4-0.6-0.6-1.3-0.6-2.2
		c0-0.8,0.2-1.6,0.5-2.3c0.3-0.8,0.8-1.4,1.4-2c0.6-0.6,1.4-1.1,2.2-1.4c0.9-0.4,1.8-0.5,2.9-0.5c1.2,0,2.2,0.2,3.1,0.6
		c0.9,0.4,1.6,0.9,2.3,1.6L162.3,210.3z M185.4,226.5c-0.4,0-0.7-0.1-0.9-0.3c-0.2-0.2-0.2-0.5-0.2-0.8l0.4-4
		c-0.5,0.8-1,1.6-1.6,2.2c-0.6,0.7-1.2,1.2-1.8,1.7c-0.6,0.5-1.3,0.8-2,1.1c-0.7,0.3-1.4,0.4-2.1,0.4c-1.6,0-2.9-0.6-3.8-1.8
		c-0.9-1.2-1.4-2.9-1.4-5.2c0-1,0.1-2.1,0.3-3.1c0.2-1,0.5-2,0.9-3c0.4-1,0.9-1.8,1.4-2.7c0.6-0.8,1.2-1.5,1.9-2.1
		c0.7-0.6,1.4-1.1,2.3-1.4c0.8-0.3,1.7-0.5,2.5-0.5c0.9,0,1.8,0.2,2.6,0.6c0.8,0.4,1.4,0.9,2,1.6l1.3-10.6h3.3l-3.5,28H185.4z
		 M178.5,224c0.6,0,1.2-0.2,1.8-0.6c0.6-0.4,1.2-0.9,1.8-1.5c0.6-0.7,1.1-1.4,1.6-2.3c0.5-0.9,0.9-1.9,1.3-3l0.6-5
		c-0.5-0.7-1.1-1.3-1.7-1.6c-0.7-0.3-1.4-0.5-2-0.5c-1,0-1.9,0.3-2.7,0.9c-0.8,0.6-1.5,1.4-2.1,2.3c-0.6,0.9-1,2-1.3,3.2
		c-0.3,1.2-0.5,2.3-0.5,3.4c0,1.5,0.3,2.7,0.8,3.4S177.5,224,178.5,224z M198.9,207.2l-2.3,19.3h-3.3l2.3-19.3H198.9z M200.2,201.1
		c0,0.3-0.1,0.6-0.2,0.9s-0.3,0.5-0.5,0.8c-0.2,0.2-0.5,0.4-0.8,0.5c-0.3,0.1-0.6,0.2-0.9,0.2c-0.3,0-0.6-0.1-0.9-0.2
		c-0.3-0.1-0.5-0.3-0.7-0.5c-0.2-0.2-0.4-0.5-0.5-0.8c-0.1-0.3-0.2-0.6-0.2-0.9c0-0.3,0.1-0.6,0.2-0.9c0.1-0.3,0.3-0.6,0.5-0.8
		c0.2-0.2,0.5-0.4,0.7-0.5c0.3-0.1,0.6-0.2,0.9-0.2c0.3,0,0.6,0.1,0.9,0.2c0.3,0.1,0.5,0.3,0.8,0.5c0.2,0.2,0.4,0.5,0.5,0.8
		C200.1,200.5,200.2,200.8,200.2,201.1z M216.7,226.5h-1.8c-0.4,0-0.7-0.1-0.9-0.3c-0.2-0.2-0.2-0.5-0.2-0.8l0.3-3.9
		c-0.5,0.8-0.9,1.5-1.5,2.2c-0.5,0.7-1.1,1.2-1.7,1.7c-0.6,0.5-1.2,0.8-1.9,1.1c-0.6,0.3-1.3,0.4-2,0.4c-0.8,0-1.5-0.2-2.1-0.5
		c-0.6-0.3-1.1-0.7-1.6-1.3c-0.4-0.6-0.8-1.3-1-2.1c-0.2-0.8-0.4-1.8-0.4-2.9c0-1.1,0.1-2.3,0.4-3.3c0.3-1.1,0.7-2.1,1.2-3.1
		c0.5-1,1.2-1.9,1.9-2.7c0.7-0.8,1.6-1.5,2.5-2.1c0.9-0.6,1.9-1,2.9-1.4c1-0.3,2.1-0.5,3.3-0.5c0.8,0,1.6,0.1,2.4,0.2
		c0.8,0.1,1.5,0.4,2.3,0.7L216.7,226.5z M208.4,223.9c0.6,0,1.2-0.2,1.8-0.6c0.6-0.4,1.2-0.9,1.7-1.6s1-1.5,1.5-2.4
		c0.5-0.9,0.9-2,1.2-3.1l0.8-6.5c-0.3-0.2-0.6-0.3-0.8-0.3c-0.3,0-0.5,0-0.8,0c-0.8,0-1.5,0.1-2.2,0.4c-0.7,0.2-1.4,0.6-2,1
		c-0.6,0.4-1.2,1-1.7,1.6c-0.5,0.6-0.9,1.3-1.3,2c-0.4,0.7-0.6,1.5-0.9,2.3c-0.2,0.8-0.3,1.7-0.3,2.6
		C205.5,222.4,206.4,223.9,208.4,223.9z M219.7,198.9l-4.7,4.9c-0.2,0.2-0.4,0.3-0.5,0.4c-0.2,0.1-0.4,0.1-0.7,0.1h-1.9l3.2-4.6
		c0.2-0.3,0.4-0.5,0.6-0.6c0.2-0.1,0.5-0.2,0.9-0.2H219.7z M222.2,226.5l2.3-19.3h1.7c0.4,0,0.6,0.1,0.8,0.2s0.3,0.4,0.3,0.8
		c0,0.1,0,0.1,0,0.2c0,0.1,0,0.2,0,0.3c0,0.1,0,0.2,0,0.3c0,0.1,0,0.1,0,0.1l-0.3,3.5c0.8-1.8,1.7-3.2,2.8-4.1c1-1,2.1-1.4,3.2-1.4
		c0.5,0,1.1,0.1,1.6,0.4l-0.6,3.2c-0.6-0.2-1.2-0.4-1.7-0.4c-1.2,0-2.3,0.6-3.3,1.8c-1,1.2-1.8,3-2.4,5.5l-1.1,9H222.2z
		 M242.1,207.2l-2.3,19.3h-3.3l2.3-19.3H242.1z M243.3,201.1c0,0.3-0.1,0.6-0.2,0.9c-0.1,0.3-0.3,0.5-0.5,0.8
		c-0.2,0.2-0.5,0.4-0.8,0.5c-0.3,0.1-0.6,0.2-0.9,0.2c-0.3,0-0.6-0.1-0.9-0.2c-0.3-0.1-0.5-0.3-0.7-0.5c-0.2-0.2-0.4-0.5-0.5-0.8
		c-0.1-0.3-0.2-0.6-0.2-0.9c0-0.3,0.1-0.6,0.2-0.9c0.1-0.3,0.3-0.6,0.5-0.8c0.2-0.2,0.5-0.4,0.7-0.5c0.3-0.1,0.6-0.2,0.9-0.2
		c0.3,0,0.6,0.1,0.9,0.2c0.3,0.1,0.5,0.3,0.8,0.5c0.2,0.2,0.4,0.5,0.5,0.8C243.3,200.5,243.3,200.8,243.3,201.1z M259.8,226.5h-1.8
		c-0.4,0-0.7-0.1-0.9-0.3c-0.2-0.2-0.2-0.5-0.2-0.8l0.3-3.9c-0.5,0.8-0.9,1.5-1.5,2.2c-0.5,0.7-1.1,1.2-1.7,1.7
		c-0.6,0.5-1.2,0.8-1.9,1.1c-0.6,0.3-1.3,0.4-2,0.4c-0.8,0-1.5-0.2-2.1-0.5c-0.6-0.3-1.1-0.7-1.6-1.3c-0.4-0.6-0.8-1.3-1-2.1
		c-0.2-0.8-0.4-1.8-0.4-2.9c0-1.1,0.1-2.3,0.4-3.3c0.3-1.1,0.7-2.1,1.2-3.1c0.5-1,1.2-1.9,1.9-2.7c0.7-0.8,1.6-1.5,2.5-2.1
		c0.9-0.6,1.9-1,2.9-1.4c1-0.3,2.1-0.5,3.3-0.5c0.8,0,1.6,0.1,2.4,0.2c0.8,0.1,1.5,0.4,2.3,0.7L259.8,226.5z M251.5,223.9
		c0.6,0,1.2-0.2,1.8-0.6c0.6-0.4,1.2-0.9,1.7-1.6s1-1.5,1.5-2.4c0.5-0.9,0.9-2,1.2-3.1l0.8-6.5c-0.3-0.2-0.6-0.3-0.8-0.3
		c-0.3,0-0.5,0-0.8,0c-0.8,0-1.5,0.1-2.2,0.4c-0.7,0.2-1.4,0.6-2,1c-0.6,0.4-1.2,1-1.7,1.6c-0.5,0.6-0.9,1.3-1.3,2
		c-0.4,0.7-0.6,1.5-0.9,2.3c-0.2,0.8-0.3,1.7-0.3,2.6C248.6,222.4,249.6,223.9,251.5,223.9z M277.7,210.3c-0.1,0.2-0.2,0.3-0.3,0.3
		c-0.1,0.1-0.2,0.1-0.4,0.1c-0.2,0-0.4-0.1-0.6-0.2c-0.2-0.1-0.5-0.3-0.8-0.5c-0.3-0.2-0.7-0.3-1.1-0.5s-1-0.2-1.6-0.2
		c-0.6,0-1.1,0.1-1.6,0.2c-0.5,0.2-0.9,0.4-1.2,0.7c-0.3,0.3-0.6,0.6-0.8,1c-0.2,0.4-0.3,0.8-0.3,1.2c0,0.6,0.2,1.1,0.6,1.4
		c0.4,0.4,0.9,0.7,1.5,0.9c0.6,0.3,1.2,0.5,1.9,0.8c0.7,0.2,1.3,0.5,1.9,0.9c0.6,0.4,1.1,0.8,1.5,1.4c0.4,0.6,0.6,1.3,0.6,2.2
		c0,0.9-0.2,1.7-0.5,2.5c-0.3,0.8-0.8,1.5-1.5,2.1c-0.7,0.6-1.4,1.1-2.4,1.5c-0.9,0.4-2,0.6-3.1,0.6c-1.2,0-2.3-0.2-3.3-0.7
		c-0.9-0.4-1.7-1-2.3-1.7l0.8-1.3c0.1-0.2,0.2-0.3,0.4-0.4c0.1-0.1,0.3-0.1,0.5-0.1c0.2,0,0.4,0.1,0.6,0.3c0.2,0.2,0.5,0.4,0.8,0.6
		c0.3,0.2,0.7,0.4,1.2,0.6c0.5,0.2,1,0.3,1.8,0.3c0.6,0,1.2-0.1,1.7-0.3c0.5-0.2,0.9-0.4,1.3-0.8c0.3-0.3,0.6-0.7,0.8-1.1
		c0.2-0.4,0.3-0.9,0.3-1.4c0-0.6-0.2-1.2-0.6-1.5c-0.4-0.4-0.9-0.7-1.5-1c-0.6-0.3-1.2-0.5-1.9-0.7c-0.7-0.2-1.3-0.5-1.9-0.9
		c-0.6-0.4-1.1-0.8-1.5-1.4c-0.4-0.6-0.6-1.3-0.6-2.2c0-0.8,0.2-1.6,0.5-2.3c0.3-0.8,0.8-1.4,1.4-2c0.6-0.6,1.4-1.1,2.2-1.4
		c0.9-0.4,1.8-0.5,2.9-0.5c1.2,0,2.2,0.2,3.1,0.6c0.9,0.4,1.6,0.9,2.3,1.6L277.7,210.3z M300.8,226.5c-0.4,0-0.7-0.1-0.9-0.3
		c-0.2-0.2-0.2-0.5-0.2-0.8l0.4-4c-0.5,0.8-1,1.6-1.6,2.2c-0.6,0.7-1.2,1.2-1.8,1.7c-0.6,0.5-1.3,0.8-2,1.1
		c-0.7,0.3-1.4,0.4-2.1,0.4c-1.6,0-2.9-0.6-3.8-1.8c-0.9-1.2-1.4-2.9-1.4-5.2c0-1,0.1-2.1,0.3-3.1c0.2-1,0.5-2,0.9-3
		c0.4-1,0.9-1.8,1.4-2.7s1.2-1.5,1.9-2.1c0.7-0.6,1.4-1.1,2.3-1.4c0.8-0.3,1.7-0.5,2.6-0.5c0.9,0,1.8,0.2,2.6,0.6
		c0.8,0.4,1.4,0.9,2,1.6l1.3-10.6h3.3l-3.5,28H300.8z M293.9,224c0.6,0,1.2-0.2,1.8-0.6c0.6-0.4,1.2-0.9,1.8-1.5
		c0.6-0.7,1.1-1.4,1.6-2.3c0.5-0.9,0.9-1.9,1.3-3l0.6-5c-0.5-0.7-1.1-1.3-1.7-1.6c-0.7-0.3-1.4-0.5-2-0.5c-1,0-1.9,0.3-2.7,0.9
		c-0.8,0.6-1.5,1.4-2.1,2.3c-0.6,0.9-1,2-1.3,3.2c-0.3,1.2-0.5,2.3-0.5,3.4c0,1.5,0.3,2.7,0.8,3.4C292.1,223.6,292.9,224,293.9,224z
		 M323.6,211.3c0,0.8-0.2,1.6-0.5,2.3c-0.3,0.7-1,1.3-1.9,1.9c-0.9,0.6-2.2,1.1-3.8,1.5c-1.6,0.4-3.7,0.8-6.2,1c0,0.1,0,0.3,0,0.4
		c0,0.1,0,0.3,0,0.4c0,1.7,0.4,3,1.1,3.9c0.7,0.9,1.9,1.3,3.4,1.3c0.6,0,1.2-0.1,1.6-0.2c0.5-0.1,0.9-0.3,1.3-0.5
		c0.4-0.2,0.7-0.4,1-0.6c0.3-0.2,0.5-0.4,0.8-0.6c0.2-0.2,0.5-0.3,0.7-0.5c0.2-0.1,0.4-0.2,0.6-0.2c0.2,0,0.4,0.1,0.6,0.3l0.8,1
		c-0.6,0.7-1.3,1.2-1.9,1.7c-0.6,0.5-1.3,0.9-1.9,1.2c-0.6,0.3-1.3,0.5-2,0.7c-0.7,0.1-1.5,0.2-2.3,0.2c-1.1,0-2.1-0.2-3-0.6
		c-0.9-0.4-1.6-0.9-2.2-1.6c-0.6-0.7-1.1-1.5-1.4-2.5c-0.3-1-0.5-2-0.5-3.2c0-1,0.1-2,0.3-3c0.2-1,0.5-1.9,0.9-2.8
		c0.4-0.9,0.9-1.7,1.5-2.5c0.6-0.8,1.2-1.4,2-2c0.7-0.6,1.6-1,2.5-1.3c0.9-0.3,1.9-0.5,2.9-0.5c1,0,1.8,0.1,2.5,0.4
		c0.7,0.3,1.3,0.6,1.8,1.1c0.5,0.4,0.8,0.9,1,1.4C323.5,210.3,323.6,210.8,323.6,211.3z M317.8,209.3c-0.8,0-1.5,0.2-2.2,0.5
		c-0.7,0.3-1.3,0.8-1.8,1.4c-0.5,0.6-1,1.3-1.3,2c-0.4,0.8-0.7,1.6-0.9,2.5c2-0.2,3.5-0.5,4.7-0.8c1.2-0.3,2.1-0.7,2.7-1
		c0.6-0.4,1.1-0.8,1.3-1.2c0.2-0.4,0.3-0.9,0.3-1.3c0-0.2-0.1-0.5-0.2-0.7c-0.1-0.2-0.3-0.5-0.5-0.7c-0.2-0.2-0.5-0.4-0.9-0.5
		C318.7,209.4,318.3,209.3,317.8,209.3z M333.9,226.5l3.4-27.3h8.1c1.4,0,2.6,0.1,3.7,0.4c1,0.3,1.9,0.7,2.5,1.2
		c0.7,0.5,1.1,1.2,1.5,1.9c0.3,0.8,0.5,1.6,0.5,2.5c0,0.8-0.1,1.6-0.3,2.3c-0.2,0.7-0.6,1.4-1.1,2c-0.5,0.6-1.1,1.2-1.8,1.7
		c-0.7,0.5-1.5,0.9-2.5,1.2c1.6,0.4,2.9,1,3.7,1.9c0.8,0.9,1.2,2.1,1.2,3.5c0,1.3-0.2,2.4-0.7,3.5c-0.4,1-1.1,1.9-2,2.7
		c-0.8,0.8-1.9,1.4-3.1,1.8c-1.2,0.4-2.6,0.6-4.1,0.6H333.9z M339,214l-1.2,9.7h5.4c1,0,1.9-0.1,2.6-0.4c0.8-0.3,1.4-0.6,1.9-1.1
		c0.5-0.5,0.9-1.1,1.1-1.8c0.3-0.7,0.4-1.5,0.4-2.4c0-1.2-0.4-2.2-1.2-2.9c-0.8-0.7-2-1.1-3.7-1.1H339z M339.3,211.5h4.4
		c1,0,1.9-0.1,2.7-0.4c0.8-0.3,1.4-0.7,1.9-1.1c0.5-0.5,0.9-1.1,1.1-1.8c0.3-0.7,0.4-1.4,0.4-2.3c0-1.3-0.4-2.3-1.2-2.9
		c-0.8-0.7-2-1-3.7-1h-4.5L339.3,211.5z"/>
	<path class="st0" d="M371.9,211.3c0,0.8-0.2,1.6-0.5,2.3c-0.3,0.7-1,1.3-1.9,1.9c-0.9,0.6-2.2,1.1-3.8,1.5c-1.6,0.4-3.7,0.8-6.2,1
		c0,0.1,0,0.3,0,0.4c0,0.1,0,0.3,0,0.4c0,1.7,0.4,3,1.1,3.9c0.7,0.9,1.9,1.3,3.4,1.3c0.6,0,1.2-0.1,1.6-0.2c0.5-0.1,0.9-0.3,1.3-0.5
		c0.4-0.2,0.7-0.4,1-0.6c0.3-0.2,0.5-0.4,0.8-0.6c0.2-0.2,0.5-0.3,0.7-0.5c0.2-0.1,0.4-0.2,0.6-0.2c0.2,0,0.4,0.1,0.6,0.3l0.8,1
		c-0.6,0.7-1.3,1.2-1.9,1.7c-0.6,0.5-1.3,0.9-1.9,1.2c-0.6,0.3-1.3,0.5-2,0.7c-0.7,0.1-1.5,0.2-2.3,0.2c-1.1,0-2.1-0.2-3-0.6
		c-0.9-0.4-1.6-0.9-2.2-1.6c-0.6-0.7-1.1-1.5-1.4-2.5s-0.5-2-0.5-3.2c0-1,0.1-2,0.3-3c0.2-1,0.5-1.9,0.9-2.8
		c0.4-0.9,0.9-1.7,1.5-2.5c0.6-0.8,1.2-1.4,2-2c0.7-0.6,1.6-1,2.5-1.3c0.9-0.3,1.9-0.5,2.9-0.5c1,0,1.8,0.1,2.5,0.4
		c0.7,0.3,1.3,0.6,1.8,1.1c0.5,0.4,0.8,0.9,1,1.4C371.8,210.3,371.9,210.8,371.9,211.3z M366,209.3c-0.8,0-1.5,0.2-2.2,0.5
		c-0.7,0.3-1.3,0.8-1.8,1.4c-0.5,0.6-1,1.3-1.3,2c-0.4,0.8-0.7,1.6-0.9,2.5c2-0.2,3.5-0.5,4.7-0.8c1.2-0.3,2.1-0.7,2.7-1
		c0.6-0.4,1.1-0.8,1.3-1.2c0.2-0.4,0.3-0.9,0.3-1.3c0-0.2-0.1-0.5-0.2-0.7c-0.1-0.2-0.3-0.5-0.5-0.7c-0.2-0.2-0.5-0.4-0.9-0.5
		C367,209.4,366.6,209.3,366,209.3z M374.4,226.5l2.3-19.3h1.7c0.8,0,1.1,0.4,1.1,1.2l-0.3,3.6c1-1.7,2-2.9,3.1-3.8
		c1.1-0.9,2.3-1.3,3.6-1.3c1.3,0,2.3,0.5,2.9,1.4c0.6,0.9,0.9,2.3,0.9,4c1-1.8,2-3.2,3.2-4.1c1.2-0.9,2.5-1.3,3.8-1.3
		c1.4,0,2.5,0.5,3.2,1.4c0.7,0.9,1.1,2.3,1.1,4c0,0.3,0,0.6,0,0.9c0,0.3-0.1,0.6-0.1,1l-1.4,12.3h-3.3l1.4-12.3
		c0.1-0.6,0.1-1.2,0.1-1.7c0-1-0.2-1.7-0.5-2.1c-0.3-0.4-0.8-0.7-1.6-0.7c-0.5,0-1.1,0.1-1.6,0.4c-0.5,0.3-1.1,0.7-1.6,1.2
		c-0.5,0.5-1,1.2-1.4,2c-0.4,0.8-0.8,1.7-1.2,2.7l-1.2,10.5h-3.3l1.5-12.3c0-0.3,0.1-0.7,0.1-1c0-0.3,0-0.6,0-0.9
		c0-0.9-0.1-1.6-0.4-2c-0.3-0.4-0.8-0.6-1.6-0.6c-0.6,0-1.2,0.2-1.8,0.5c-0.6,0.3-1.1,0.7-1.6,1.3c-0.5,0.6-1,1.3-1.4,2.1
		c-0.4,0.8-0.8,1.8-1.2,2.8l-1.2,10H374.4z M405.5,213.7h8.7l-0.4,2.8h-8.7L405.5,213.7z M432.7,211.3c0,0.8-0.2,1.6-0.5,2.3
		c-0.3,0.7-1,1.3-1.9,1.9c-0.9,0.6-2.2,1.1-3.8,1.5c-1.6,0.4-3.7,0.8-6.2,1c0,0.1,0,0.3,0,0.4c0,0.1,0,0.3,0,0.4
		c0,1.7,0.4,3,1.1,3.9c0.7,0.9,1.9,1.3,3.4,1.3c0.6,0,1.2-0.1,1.6-0.2c0.5-0.1,0.9-0.3,1.3-0.5c0.4-0.2,0.7-0.4,1-0.6
		c0.3-0.2,0.5-0.4,0.8-0.6c0.2-0.2,0.5-0.3,0.7-0.5c0.2-0.1,0.4-0.2,0.6-0.2c0.2,0,0.4,0.1,0.6,0.3l0.8,1c-0.6,0.7-1.3,1.2-1.9,1.7
		c-0.6,0.5-1.3,0.9-1.9,1.2c-0.6,0.3-1.3,0.5-2,0.7c-0.7,0.1-1.5,0.2-2.3,0.2c-1.1,0-2.1-0.2-3-0.6c-0.9-0.4-1.6-0.9-2.2-1.6
		c-0.6-0.7-1.1-1.5-1.4-2.5s-0.5-2-0.5-3.2c0-1,0.1-2,0.3-3c0.2-1,0.5-1.9,0.9-2.8c0.4-0.9,0.9-1.7,1.5-2.5c0.6-0.8,1.2-1.4,2-2
		c0.7-0.6,1.6-1,2.5-1.3c0.9-0.3,1.9-0.5,2.9-0.5c1,0,1.8,0.1,2.5,0.4c0.7,0.3,1.3,0.6,1.8,1.1c0.5,0.4,0.8,0.9,1,1.4
		C432.6,210.3,432.7,210.8,432.7,211.3z M426.9,209.3c-0.8,0-1.5,0.2-2.2,0.5c-0.7,0.3-1.3,0.8-1.8,1.4c-0.5,0.6-1,1.3-1.3,2
		c-0.4,0.8-0.7,1.6-0.9,2.5c2-0.2,3.5-0.5,4.7-0.8c1.2-0.3,2.1-0.7,2.7-1c0.6-0.4,1.1-0.8,1.3-1.2c0.2-0.4,0.3-0.9,0.3-1.3
		c0-0.2-0.1-0.5-0.2-0.7c-0.1-0.2-0.3-0.5-0.5-0.7c-0.2-0.2-0.5-0.4-0.9-0.5C427.8,209.4,427.4,209.3,426.9,209.3z M447.7,210.3
		c-0.1,0.2-0.2,0.3-0.3,0.3c-0.1,0.1-0.2,0.1-0.4,0.1c-0.2,0-0.4-0.1-0.6-0.2c-0.2-0.1-0.5-0.3-0.8-0.5c-0.3-0.2-0.7-0.3-1.1-0.5
		c-0.4-0.1-1-0.2-1.6-0.2c-0.6,0-1.1,0.1-1.6,0.2c-0.5,0.2-0.9,0.4-1.2,0.7c-0.3,0.3-0.6,0.6-0.8,1c-0.2,0.4-0.3,0.8-0.3,1.2
		c0,0.6,0.2,1.1,0.6,1.4c0.4,0.4,0.9,0.7,1.5,0.9c0.6,0.3,1.2,0.5,1.9,0.8c0.7,0.2,1.3,0.5,1.9,0.9c0.6,0.4,1.1,0.8,1.5,1.4
		c0.4,0.6,0.6,1.3,0.6,2.2c0,0.9-0.2,1.7-0.5,2.5c-0.3,0.8-0.8,1.5-1.5,2.1s-1.4,1.1-2.4,1.5c-0.9,0.4-2,0.6-3.1,0.6
		c-1.2,0-2.3-0.2-3.3-0.7c-0.9-0.4-1.7-1-2.3-1.7l0.8-1.3c0.1-0.2,0.2-0.3,0.4-0.4c0.1-0.1,0.3-0.1,0.5-0.1c0.2,0,0.4,0.1,0.6,0.3
		c0.2,0.2,0.5,0.4,0.8,0.6c0.3,0.2,0.7,0.4,1.2,0.6c0.5,0.2,1,0.3,1.8,0.3c0.6,0,1.2-0.1,1.7-0.3c0.5-0.2,0.9-0.4,1.3-0.8
		c0.3-0.3,0.6-0.7,0.8-1.1c0.2-0.4,0.3-0.9,0.3-1.4c0-0.6-0.2-1.2-0.6-1.5c-0.4-0.4-0.9-0.7-1.5-1c-0.6-0.3-1.2-0.5-1.9-0.7
		c-0.7-0.2-1.3-0.5-1.9-0.9c-0.6-0.4-1.1-0.8-1.5-1.4c-0.4-0.6-0.6-1.3-0.6-2.2c0-0.8,0.2-1.6,0.5-2.3c0.3-0.8,0.8-1.4,1.4-2
		c0.6-0.6,1.4-1.1,2.2-1.4c0.9-0.4,1.8-0.5,2.9-0.5c1.2,0,2.2,0.2,3.1,0.6c0.9,0.4,1.6,0.9,2.3,1.6L447.7,210.3z M452.2,222.8
		c0-0.1,0-0.2,0-0.3c0-0.1,0-0.3,0-0.5c0-0.2,0-0.5,0.1-0.9c0-0.4,0.1-0.9,0.2-1.4l1.2-9.7h-2.2c-0.2,0-0.3-0.1-0.4-0.1
		c-0.1-0.1-0.2-0.2-0.2-0.4c0,0,0-0.1,0-0.2c0-0.1,0-0.2,0-0.4c0-0.1,0-0.3,0.1-0.4c0-0.2,0-0.3,0-0.4l3-0.4l1.4-6
		c0-0.2,0.1-0.3,0.3-0.5c0.1-0.1,0.3-0.2,0.5-0.2h1.8l-0.8,6.6h5.1l-0.3,2.5H457l-1.2,9.5c-0.1,0.5-0.1,0.9-0.1,1.3
		c0,0.3-0.1,0.6-0.1,0.8c0,0.2,0,0.3,0,0.4c0,0.1,0,0.1,0,0.2c0,0.6,0.2,1.1,0.5,1.4c0.3,0.3,0.7,0.5,1.2,0.5c0.3,0,0.6-0.1,0.9-0.1
		c0.3-0.1,0.5-0.2,0.7-0.3c0.2-0.1,0.3-0.2,0.5-0.3c0.1-0.1,0.2-0.1,0.3-0.1c0.1,0,0.2,0,0.2,0.1c0.1,0.1,0.1,0.1,0.2,0.3l0.7,1.6
		c-0.6,0.5-1.3,1-2.1,1.3c-0.8,0.3-1.6,0.5-2.4,0.5c-1.2,0-2.2-0.3-2.9-1C452.6,225.1,452.2,224.1,452.2,222.8z M478.2,226.5h-1.8
		c-0.4,0-0.7-0.1-0.9-0.3c-0.2-0.2-0.2-0.5-0.2-0.8l0.3-3.9c-0.5,0.8-0.9,1.5-1.5,2.2c-0.5,0.7-1.1,1.2-1.7,1.7
		c-0.6,0.5-1.2,0.8-1.9,1.1c-0.6,0.3-1.3,0.4-2,0.4c-0.8,0-1.5-0.2-2.1-0.5c-0.6-0.3-1.1-0.7-1.6-1.3c-0.4-0.6-0.8-1.3-1-2.1
		c-0.2-0.8-0.4-1.8-0.4-2.9c0-1.1,0.1-2.3,0.4-3.3c0.3-1.1,0.7-2.1,1.2-3.1c0.5-1,1.2-1.9,1.9-2.7c0.7-0.8,1.6-1.5,2.5-2.1
		c0.9-0.6,1.9-1,2.9-1.4c1-0.3,2.1-0.5,3.3-0.5c0.8,0,1.6,0.1,2.4,0.2c0.8,0.1,1.5,0.4,2.3,0.7L478.2,226.5z M469.9,223.9
		c0.6,0,1.2-0.2,1.8-0.6c0.6-0.4,1.2-0.9,1.7-1.6c0.5-0.7,1-1.5,1.5-2.4c0.5-0.9,0.9-2,1.2-3.1l0.8-6.5c-0.3-0.2-0.6-0.3-0.8-0.3
		c-0.3,0-0.5,0-0.8,0c-0.8,0-1.5,0.1-2.2,0.4c-0.7,0.2-1.4,0.6-2,1c-0.6,0.4-1.2,1-1.7,1.6c-0.5,0.6-0.9,1.3-1.3,2
		c-0.4,0.7-0.6,1.5-0.9,2.3c-0.2,0.8-0.3,1.7-0.3,2.6C466.9,222.4,467.9,223.9,469.9,223.9z M483.6,226.5l2.3-19.3h1.7
		c0.4,0,0.6,0.1,0.8,0.2c0.2,0.2,0.3,0.4,0.3,0.8c0,0.1,0,0.1,0,0.2c0,0.1,0,0.2,0,0.3c0,0.1,0,0.2,0,0.3c0,0.1,0,0.1,0,0.1
		l-0.3,3.5c0.8-1.8,1.8-3.2,2.8-4.1c1-1,2.1-1.4,3.2-1.4c0.5,0,1.1,0.1,1.6,0.4l-0.6,3.2c-0.6-0.2-1.2-0.4-1.7-0.4
		c-1.2,0-2.3,0.6-3.3,1.8c-1,1.2-1.8,3-2.4,5.5l-1.1,9H483.6z"/>
</g>
<rect x="42.5" y="169.4" class="st0" width="481.9" height="1.4"/>
</svg>
